<svg width="199" height="53" viewBox="0 0 199 53" fill="none" xmlns="http://www.w3.org/2000/svg">
<path d="M81.44 17.464C82.128 17.464 82.712 17.352 83.192 17.128C83.688 16.888 84.088 16.576 84.392 16.192C84.712 15.792 84.944 15.344 85.088 14.848C85.248 14.336 85.328 13.8 85.328 13.24V12.952H87.344V13.24C87.344 14.088 87.216 14.888 86.96 15.64C86.704 16.376 86.328 17.024 85.832 17.584C85.336 18.128 84.72 18.56 83.984 18.88C83.248 19.184 82.4 19.336 81.44 19.336C79.584 19.336 78.136 18.752 77.096 17.584C76.056 16.416 75.536 14.712 75.536 12.472V8.728C75.536 6.552 76.056 4.864 77.096 3.664C78.136 2.464 79.584 1.864 81.44 1.864C82.4 1.864 83.248 2.024 83.984 2.344C84.72 2.648 85.336 3.08 85.832 3.64C86.328 4.184 86.704 4.832 86.96 5.584C87.216 6.32 87.344 7.112 87.344 7.96V8.248H85.328V7.96C85.312 7.416 85.224 6.888 85.064 6.376C84.92 5.864 84.688 5.416 84.368 5.032C84.064 4.632 83.672 4.32 83.192 4.096C82.712 3.856 82.128 3.736 81.44 3.736C80.144 3.736 79.168 4.208 78.512 5.152C77.872 6.096 77.552 7.336 77.552 8.872V12.328C77.552 13.976 77.872 15.248 78.512 16.144C79.168 17.024 80.144 17.464 81.44 17.464ZM100.239 14.824H93.0393L91.8153 19H89.6553L94.7433 2.2H98.5353L103.623 19H101.463L100.239 14.824ZM96.4953 3.064L93.5913 12.952H99.6873L96.7833 3.064H96.4953ZM115.223 18.136H115.511V2.2H117.527V19H113.495L108.647 3.064H108.359V19H106.343V2.2H110.375L115.223 18.136ZM130.518 18.136H130.806V2.2H132.822V19H128.79L123.942 3.064H123.654V19H121.638V2.2H125.67L130.518 18.136ZM136.621 8.728C136.621 6.552 137.141 4.864 138.181 3.664C139.221 2.464 140.669 1.864 142.525 1.864C144.381 1.864 145.829 2.464 146.869 3.664C147.909 4.864 148.429 6.552 148.429 8.728V12.472C148.429 14.712 147.909 16.416 146.869 17.584C145.829 18.752 144.381 19.336 142.525 19.336C140.669 19.336 139.221 18.752 138.181 17.584C137.141 16.416 136.621 14.712 136.621 12.472V8.728ZM142.525 17.464C143.821 17.464 144.789 17.024 145.429 16.144C146.085 15.248 146.413 13.976 146.413 12.328V8.872C146.413 7.336 146.085 6.096 145.429 5.152C144.789 4.208 143.821 3.736 142.525 3.736C141.229 3.736 140.253 4.208 139.597 5.152C138.957 6.096 138.637 7.336 138.637 8.872V12.328C138.637 13.976 138.957 15.248 139.597 16.144C140.253 17.024 141.229 17.464 142.525 17.464ZM161.109 18.136H161.397V2.2H163.413V19H159.381L154.533 3.064H154.245V19H152.229V2.2H156.261L161.109 18.136Z" fill="black"/>
<path d="M75.2 22H85.04V23.56H80.96V36H79.28V23.56H75.2V22ZM88.6261 22H97.1061V23.56H90.3061V28.2H96.9861V29.76H90.3061V34.44H97.2261V36H88.6261V22ZM105.692 34.72C106.266 34.72 106.752 34.6267 107.152 34.44C107.566 34.24 107.899 33.98 108.152 33.66C108.419 33.3267 108.612 32.9533 108.732 32.54C108.866 32.1133 108.932 31.6667 108.932 31.2V30.96H110.612V31.2C110.612 31.9067 110.506 32.5733 110.292 33.2C110.079 33.8133 109.766 34.3533 109.352 34.82C108.939 35.2733 108.426 35.6333 107.812 35.9C107.199 36.1533 106.492 36.28 105.692 36.28C104.146 36.28 102.939 35.7933 102.072 34.82C101.206 33.8467 100.772 32.4267 100.772 30.56V27.44C100.772 25.6267 101.206 24.22 102.072 23.22C102.939 22.22 104.146 21.72 105.692 21.72C106.492 21.72 107.199 21.8533 107.812 22.12C108.426 22.3733 108.939 22.7333 109.352 23.2C109.766 23.6533 110.079 24.1933 110.292 24.82C110.506 25.4333 110.612 26.0933 110.612 26.8V27.04H108.932V26.8C108.919 26.3467 108.846 25.9067 108.712 25.48C108.592 25.0533 108.399 24.68 108.132 24.36C107.879 24.0267 107.552 23.7667 107.152 23.58C106.752 23.38 106.266 23.28 105.692 23.28C104.612 23.28 103.799 23.6733 103.252 24.46C102.719 25.2467 102.452 26.28 102.452 27.56V30.44C102.452 31.8133 102.719 32.8733 103.252 33.62C103.799 34.3533 104.612 34.72 105.692 34.72ZM113.698 22H115.378V28.2H121.338V22H123.018V36H121.338V29.76H115.378V36H113.698V22Z" fill="#A7A7A7"/>
<rect x="26" y="3" width="34" height="13" fill="black"/>
<rect y="29" width="27" height="7" fill="#C8C8C8"/>
<circle cx="26.5" cy="19.5" r="16.5" fill="#0A0A0A"/>
</svg>
