<svg width="175" height="35" viewBox="0 0 175 35" fill="none" xmlns="http://www.w3.org/2000/svg">
<rect x="26" y="2" width="34" height="13" fill="white"/>
<rect y="28" width="27" height="7" fill="#BDBDBD" fill-opacity="0.5"/>
<circle cx="26.5" cy="18.5" r="16.5" fill="#F3F3F3"/>
<path d="M78.9341 16.464C79.6221 16.464 80.2061 16.352 80.6861 16.128C81.1821 15.888 81.5821 15.576 81.8861 15.192C82.2061 14.792 82.4381 14.344 82.5821 13.848C82.7421 13.336 82.8221 12.8 82.8221 12.24V11.952H84.8381V12.24C84.8381 13.088 84.7101 13.888 84.4541 14.64C84.1981 15.376 83.8221 16.024 83.3261 16.584C82.8301 17.128 82.2141 17.56 81.4781 17.88C80.7421 18.184 79.8941 18.336 78.9341 18.336C77.0781 18.336 75.6301 17.752 74.5901 16.584C73.5501 15.416 73.0301 13.712 73.0301 11.472V7.728C73.0301 5.552 73.5501 3.864 74.5901 2.664C75.6301 1.464 77.0781 0.863999 78.9341 0.863999C79.8941 0.863999 80.7421 1.024 81.4781 1.344C82.2141 1.648 82.8301 2.08 83.3261 2.64C83.8221 3.184 84.1981 3.832 84.4541 4.584C84.7101 5.32 84.8381 6.112 84.8381 6.96V7.248H82.8221V6.96C82.8061 6.416 82.7181 5.888 82.5581 5.376C82.4141 4.864 82.1821 4.416 81.8621 4.032C81.5581 3.632 81.1661 3.32 80.6861 3.096C80.2061 2.856 79.6221 2.736 78.9341 2.736C77.6381 2.736 76.6621 3.208 76.0061 4.152C75.3661 5.096 75.0461 6.336 75.0461 7.872V11.328C75.0461 12.976 75.3661 14.248 76.0061 15.144C76.6621 16.024 77.6381 16.464 78.9341 16.464ZM99.7734 13.824H92.5734L91.3494 18H89.1894L94.2774 1.2H98.0694L103.157 18H100.997L99.7734 13.824ZM96.0294 2.064L93.1254 11.952H99.2214L96.3174 2.064H96.0294ZM116.797 17.136H117.085V1.2H119.101V18H115.069L110.221 2.064H109.933V18H107.917V1.2H111.949L116.797 17.136ZM134.132 17.136H134.42V1.2H136.436V18H132.404L127.556 2.064H127.268V18H125.252V1.2H129.284L134.132 17.136ZM142.275 7.728C142.275 5.552 142.795 3.864 143.835 2.664C144.875 1.464 146.323 0.863999 148.179 0.863999C150.035 0.863999 151.483 1.464 152.523 2.664C153.563 3.864 154.083 5.552 154.083 7.728V11.472C154.083 13.712 153.563 15.416 152.523 16.584C151.483 17.752 150.035 18.336 148.179 18.336C146.323 18.336 144.875 17.752 143.835 16.584C142.795 15.416 142.275 13.712 142.275 11.472V7.728ZM148.179 16.464C149.475 16.464 150.443 16.024 151.083 15.144C151.739 14.248 152.067 12.976 152.067 11.328V7.872C152.067 6.336 151.739 5.096 151.083 4.152C150.443 3.208 149.475 2.736 148.179 2.736C146.883 2.736 145.907 3.208 145.251 4.152C144.611 5.096 144.291 6.336 144.291 7.872V11.328C144.291 12.976 144.611 14.248 145.251 15.144C145.907 16.024 146.883 16.464 148.179 16.464ZM168.803 17.136H169.091V1.2H171.107V18H167.075L162.227 2.064H161.939V18H159.923V1.2H163.955L168.803 17.136Z" fill="white"/>
<path d="M74.9341 22.8H82.8061V24.048H79.5421V34H78.1981V24.048H74.9341V22.8ZM86.6349 22.8H93.4189V24.048H87.9789V27.76H93.3229V29.008H87.9789V32.752H93.5149V34H86.6349V22.8ZM101.248 32.976C101.706 32.976 102.096 32.9013 102.416 32.752C102.746 32.592 103.013 32.384 103.216 32.128C103.429 31.8613 103.584 31.5627 103.68 31.232C103.786 30.8907 103.84 30.5333 103.84 30.16V29.968H105.184V30.16C105.184 30.7253 105.098 31.2587 104.928 31.76C104.757 32.2507 104.506 32.6827 104.176 33.056C103.845 33.4187 103.434 33.7067 102.944 33.92C102.453 34.1227 101.888 34.224 101.248 34.224C100.01 34.224 99.0451 33.8347 98.3518 33.056C97.6585 32.2773 97.3118 31.1413 97.3118 29.648V27.152C97.3118 25.7013 97.6585 24.576 98.3518 23.776C99.0451 22.976 100.01 22.576 101.248 22.576C101.888 22.576 102.453 22.6827 102.944 22.896C103.434 23.0987 103.845 23.3867 104.176 23.76C104.506 24.1227 104.757 24.5547 104.928 25.056C105.098 25.5467 105.184 26.0747 105.184 26.64V26.832H103.84V26.64C103.829 26.2773 103.77 25.9253 103.664 25.584C103.568 25.2427 103.413 24.944 103.2 24.688C102.997 24.4213 102.736 24.2133 102.416 24.064C102.096 23.904 101.706 23.824 101.248 23.824C100.384 23.824 99.7331 24.1387 99.2958 24.768C98.8691 25.3973 98.6558 26.224 98.6558 27.248V29.552C98.6558 30.6507 98.8691 31.4987 99.2958 32.096C99.7331 32.6827 100.384 32.976 101.248 32.976ZM108.613 22.8H109.957V27.76H114.725V22.8H116.069V34H114.725V29.008H109.957V34H108.613V22.8ZM130.67 32.752H131.63V24.048H130.67V22.8H135.198C135.732 22.8 136.201 22.8747 136.606 23.024C137.022 23.1733 137.369 23.376 137.646 23.632C137.934 23.888 138.148 24.1973 138.286 24.56C138.436 24.912 138.51 25.296 138.51 25.712V25.904C138.51 26.2133 138.462 26.496 138.366 26.752C138.27 27.008 138.137 27.2373 137.966 27.44C137.796 27.6427 137.593 27.8187 137.358 27.968C137.134 28.1067 136.889 28.2133 136.622 28.288V28.48C137.156 28.6293 137.604 28.9173 137.966 29.344C138.329 29.76 138.51 30.272 138.51 30.88V31.072C138.51 31.488 138.436 31.8773 138.286 32.24C138.148 32.592 137.934 32.9013 137.646 33.168C137.369 33.424 137.022 33.6267 136.606 33.776C136.201 33.9253 135.732 34 135.198 34H130.67V32.752ZM132.974 32.752H135.102C135.732 32.752 136.244 32.5973 136.638 32.288C137.033 31.968 137.23 31.5307 137.23 30.976V30.88C137.23 30.304 137.044 29.8507 136.67 29.52C136.297 29.1787 135.79 29.008 135.15 29.008H132.974V32.752ZM132.974 27.76H135.15C135.79 27.76 136.297 27.5947 136.67 27.264C137.044 26.9333 137.23 26.48 137.23 25.904V25.808C137.23 25.264 137.033 24.8373 136.638 24.528C136.244 24.208 135.732 24.048 135.102 24.048H132.974V27.76ZM142.307 22.8H143.651V32.752H149.507V34H142.307V22.8ZM153.032 27.152C153.032 25.7013 153.379 24.576 154.072 23.776C154.766 22.976 155.731 22.576 156.968 22.576C158.206 22.576 159.171 22.976 159.864 23.776C160.558 24.576 160.904 25.7013 160.904 27.152V29.648C160.904 31.1413 160.558 32.2773 159.864 33.056C159.171 33.8347 158.206 34.224 156.968 34.224C155.731 34.224 154.766 33.8347 154.072 33.056C153.379 32.2773 153.032 31.1413 153.032 29.648V27.152ZM156.968 32.976C157.832 32.976 158.478 32.6827 158.904 32.096C159.342 31.4987 159.56 30.6507 159.56 29.552V27.248C159.56 26.224 159.342 25.3973 158.904 24.768C158.478 24.1387 157.832 23.824 156.968 23.824C156.104 23.824 155.454 24.1387 155.016 24.768C154.59 25.3973 154.376 26.224 154.376 27.248V29.552C154.376 30.6507 154.59 31.4987 155.016 32.096C155.454 32.6827 156.104 32.976 156.968 32.976ZM167.053 28.624H172.045V34H170.797V32.656H170.605C170.424 33.1253 170.104 33.504 169.645 33.792C169.186 34.08 168.653 34.224 168.045 34.224C166.84 34.224 165.89 33.8347 165.197 33.056C164.514 32.2773 164.173 31.1413 164.173 29.648V27.152C164.173 25.7013 164.52 24.576 165.213 23.776C165.906 22.976 166.872 22.576 168.109 22.576C168.749 22.576 169.314 22.6827 169.805 22.896C170.296 23.0987 170.706 23.3867 171.037 23.76C171.368 24.1227 171.618 24.5547 171.789 25.056C171.96 25.5467 172.045 26.0747 172.045 26.64V26.832H170.701V26.64C170.701 26.2773 170.648 25.9253 170.541 25.584C170.445 25.2427 170.29 24.944 170.077 24.688C169.874 24.4213 169.608 24.2133 169.277 24.064C168.957 23.904 168.568 23.824 168.109 23.824C167.245 23.824 166.594 24.1387 166.157 24.768C165.73 25.3973 165.517 26.224 165.517 27.248V29.552C165.517 30.6507 165.73 31.4987 166.157 32.096C166.594 32.6827 167.256 32.976 168.141 32.976C168.941 32.976 169.565 32.72 170.013 32.208C170.472 31.696 170.701 30.9813 170.701 30.064V29.872H167.053V28.624Z" fill="#606060"/>
</svg>
